<svg width="129" height="24" viewBox="0 0 129 24" fill="none" xmlns="http://www.w3.org/2000/svg">
<path d="M16.8906 20.2838C10.4673 22.281 0.0927203 20.2399 0.000572001 11.3449C-0.0915763 2.44983 10.9806 7.74852 10.9806 7.74852L16.8906 20.2838Z" fill="#FFC250"/>
<path d="M3.12366 6.35426C7.60662 5.58608 11.0114 11.5265 14.7783 17.7232C18.5452 23.92 28.3542 26.3762 34.6218 21.165C40.8894 15.9539 43.542 6.82713 35.8465 1.38317C28.1509 -4.06079 23.3471 8.29872 16.7221 8.63845C10.0972 8.97819 10.0489 4.05367 3.12366 6.35426Z" fill="#FFD064"/>
<circle cx="35.1972" cy="11.6219" r="1.96745" fill="#FFE19D"/>
<circle cx="31.4263" cy="13.0974" r="1.47559" fill="#FFE19D"/>
<circle cx="34.0495" cy="15.0648" r="1.14768" fill="#FFE19D"/>
<path d="M50.6123 18V1.2H57.3563C59.1003 1.2 60.4283 1.608 61.3403 2.424C62.2683 3.224 62.7323 4.256 62.7323 5.52C62.7323 6.576 62.4443 7.424 61.8683 8.064C61.3083 8.688 60.6203 9.112 59.8043 9.336C60.7643 9.528 61.5563 10.008 62.1803 10.776C62.8043 11.528 63.1163 12.408 63.1163 13.416C63.1163 14.744 62.6363 15.84 61.6763 16.704C60.7163 17.568 59.3563 18 57.5963 18H50.6123ZM53.6843 8.256H56.9003C57.7643 8.256 58.4283 8.056 58.8923 7.656C59.3563 7.256 59.5883 6.688 59.5883 5.952C59.5883 5.248 59.3563 4.696 58.8923 4.296C58.4443 3.88 57.7643 3.672 56.8523 3.672H53.6843V8.256ZM53.6843 15.504H57.1163C58.0283 15.504 58.7323 15.296 59.2283 14.88C59.7403 14.448 59.9963 13.848 59.9963 13.08C59.9963 12.296 59.7323 11.68 59.2043 11.232C58.6763 10.784 57.9643 10.56 57.0683 10.56H53.6843V15.504ZM68.825 18.288C67.801 18.288 66.961 18.128 66.305 17.808C65.649 17.472 65.161 17.032 64.841 16.488C64.521 15.944 64.361 15.344 64.361 14.688C64.361 13.584 64.793 12.688 65.657 12C66.521 11.312 67.817 10.968 69.545 10.968H72.569V10.68C72.569 9.864 72.337 9.264 71.873 8.88C71.409 8.496 70.833 8.304 70.145 8.304C69.521 8.304 68.977 8.456 68.513 8.76C68.049 9.048 67.761 9.48 67.649 10.056H64.649C64.729 9.192 65.017 8.44 65.513 7.8C66.025 7.16 66.681 6.672 67.481 6.336C68.281 5.984 69.177 5.808 70.169 5.808C71.865 5.808 73.201 6.232 74.177 7.08C75.153 7.928 75.641 9.128 75.641 10.68V18H73.025L72.737 16.08C72.385 16.72 71.889 17.248 71.249 17.664C70.625 18.08 69.817 18.288 68.825 18.288ZM69.521 15.888C70.401 15.888 71.081 15.6 71.561 15.024C72.057 14.448 72.369 13.736 72.497 12.888H69.881C69.065 12.888 68.481 13.04 68.129 13.344C67.777 13.632 67.601 13.992 67.601 14.424C67.601 14.888 67.777 15.248 68.129 15.504C68.481 15.76 68.945 15.888 69.521 15.888ZM82.7525 18C81.5045 18 80.5045 17.696 79.7525 17.088C79.0005 16.48 78.6245 15.4 78.6245 13.848V8.664H76.5845V6.096H78.6245L78.9845 2.904H81.6965V6.096H84.9125V8.664H81.6965V13.872C81.6965 14.448 81.8165 14.848 82.0565 15.072C82.3125 15.28 82.7445 15.384 83.3525 15.384H84.8405V18H82.7525ZM90.694 18.288C89.67 18.288 88.83 18.128 88.174 17.808C87.518 17.472 87.03 17.032 86.71 16.488C86.39 15.944 86.23 15.344 86.23 14.688C86.23 13.584 86.662 12.688 87.526 12C88.39 11.312 89.686 10.968 91.414 10.968H94.438V10.68C94.438 9.864 94.206 9.264 93.742 8.88C93.278 8.496 92.702 8.304 92.014 8.304C91.39 8.304 90.846 8.456 90.382 8.76C89.918 9.048 89.63 9.48 89.518 10.056H86.518C86.598 9.192 86.886 8.44 87.382 7.8C87.894 7.16 88.55 6.672 89.35 6.336C90.15 5.984 91.046 5.808 92.038 5.808C93.734 5.808 95.07 6.232 96.046 7.08C97.022 7.928 97.51 9.128 97.51 10.68V18H94.894L94.606 16.08C94.254 16.72 93.758 17.248 93.118 17.664C92.494 18.08 91.686 18.288 90.694 18.288ZM91.39 15.888C92.27 15.888 92.95 15.6 93.43 15.024C93.926 14.448 94.238 13.736 94.366 12.888H91.75C90.934 12.888 90.35 13.04 89.998 13.344C89.646 13.632 89.47 13.992 89.47 14.424C89.47 14.888 89.646 15.248 89.998 15.504C90.35 15.76 90.814 15.888 91.39 15.888ZM106.538 18.288C105.642 18.288 104.858 18.12 104.186 17.784C103.514 17.448 102.97 16.976 102.554 16.368L102.218 18H99.4816V0.719999H102.554V7.8C102.938 7.272 103.442 6.808 104.066 6.408C104.706 6.008 105.53 5.808 106.538 5.808C107.658 5.808 108.658 6.08 109.538 6.624C110.418 7.168 111.114 7.912 111.626 8.856C112.138 9.8 112.394 10.872 112.394 12.072C112.394 13.272 112.138 14.344 111.626 15.288C111.114 16.216 110.418 16.952 109.538 17.496C108.658 18.024 107.658 18.288 106.538 18.288ZM105.89 15.6C106.866 15.6 107.674 15.272 108.314 14.616C108.954 13.96 109.274 13.112 109.274 12.072C109.274 11.032 108.954 10.176 108.314 9.504C107.674 8.832 106.866 8.496 105.89 8.496C104.898 8.496 104.082 8.832 103.442 9.504C102.818 10.16 102.506 11.008 102.506 12.048C102.506 13.088 102.818 13.944 103.442 14.616C104.082 15.272 104.898 15.6 105.89 15.6ZM115.834 4.248C115.274 4.248 114.81 4.08 114.442 3.744C114.09 3.408 113.914 2.984 113.914 2.472C113.914 1.96 114.09 1.544 114.442 1.224C114.81 0.887999 115.274 0.719999 115.834 0.719999C116.394 0.719999 116.85 0.887999 117.202 1.224C117.57 1.544 117.754 1.96 117.754 2.472C117.754 2.984 117.57 3.408 117.202 3.744C116.85 4.08 116.394 4.248 115.834 4.248ZM114.298 18V6.096H117.37V18H114.298ZM124.92 18C123.672 18 122.672 17.696 121.92 17.088C121.168 16.48 120.792 15.4 120.792 13.848V8.664H118.752V6.096H120.792L121.152 2.904H123.864V6.096H127.08V8.664H123.864V13.872C123.864 14.448 123.984 14.848 124.224 15.072C124.48 15.28 124.912 15.384 125.52 15.384H127.008V18H124.92Z" fill="#F7931A"/>
</svg>
